<mxfile host="app.diagrams.net" agent="Mozilla/5.0 (Windows NT 10.0; Win64; x64) AppleWebKit/537.36 (KHTML, like Gecko) Chrome/133.0.0.0 Safari/537.36" version="26.0.15">
  <diagram name="Page-1" id="uvpmUZ4AXPjhRNYj7Ekr">
    <mxGraphModel dx="1533" dy="425" grid="1" gridSize="10" guides="1" tooltips="1" connect="1" arrows="1" fold="1" page="1" pageScale="1" pageWidth="850" pageHeight="1100" math="0" shadow="0">
      <root>
        <mxCell id="0" />
        <mxCell id="1" parent="0" />
        <mxCell id="tkWrqGnNcjWu5yAKOuZE-100" value="" style="rounded=0;whiteSpace=wrap;html=1;fillColor=#f5f5f5;fontColor=#333333;strokeColor=#666666;" parent="1" vertex="1">
          <mxGeometry x="40.5" y="360" width="599.5" height="800" as="geometry" />
        </mxCell>
        <mxCell id="tkWrqGnNcjWu5yAKOuZE-131" value="" style="endArrow=none;dashed=1;html=1;rounded=0;entryX=0;entryY=1;entryDx=0;entryDy=0;exitX=0;exitY=0;exitDx=0;exitDy=0;strokeColor=#ABABAB;" parent="1" source="tkWrqGnNcjWu5yAKOuZE-99" target="tkWrqGnNcjWu5yAKOuZE-4" edge="1">
          <mxGeometry width="50" height="50" relative="1" as="geometry">
            <mxPoint x="120" y="1180" as="sourcePoint" />
            <mxPoint x="170" y="1130" as="targetPoint" />
          </mxGeometry>
        </mxCell>
        <mxCell id="tkWrqGnNcjWu5yAKOuZE-132" value="" style="endArrow=none;dashed=1;html=1;rounded=0;entryX=1;entryY=1;entryDx=0;entryDy=0;exitX=1;exitY=0;exitDx=0;exitDy=0;strokeColor=#ABABAB;" parent="1" source="tkWrqGnNcjWu5yAKOuZE-99" target="tkWrqGnNcjWu5yAKOuZE-4" edge="1">
          <mxGeometry width="50" height="50" relative="1" as="geometry">
            <mxPoint x="130" y="1190" as="sourcePoint" />
            <mxPoint x="270" y="1090" as="targetPoint" />
          </mxGeometry>
        </mxCell>
        <mxCell id="tkWrqGnNcjWu5yAKOuZE-99" value="" style="rounded=0;whiteSpace=wrap;html=1;fillColor=#f8cecc;strokeColor=#b85450;" parent="1" vertex="1">
          <mxGeometry x="120" y="1180" width="520" height="340" as="geometry" />
        </mxCell>
        <mxCell id="tkWrqGnNcjWu5yAKOuZE-129" style="edgeStyle=orthogonalEdgeStyle;rounded=0;orthogonalLoop=1;jettySize=auto;html=1;entryX=0;entryY=0.5;entryDx=0;entryDy=0;" parent="1" source="tkWrqGnNcjWu5yAKOuZE-126" target="tkWrqGnNcjWu5yAKOuZE-102" edge="1">
          <mxGeometry relative="1" as="geometry">
            <Array as="points">
              <mxPoint x="510" y="1340" />
              <mxPoint x="510" y="1235" />
            </Array>
          </mxGeometry>
        </mxCell>
        <mxCell id="tkWrqGnNcjWu5yAKOuZE-126" value="" style="rounded=0;whiteSpace=wrap;html=1;fillColor=#f5f5f5;strokeColor=#666666;fontColor=#333333;" parent="1" vertex="1">
          <mxGeometry x="280" y="1300" width="140" height="180" as="geometry" />
        </mxCell>
        <mxCell id="tkWrqGnNcjWu5yAKOuZE-2" value="PPM generate" style="rounded=0;whiteSpace=wrap;html=1;fillColor=#d5e8d4;strokeColor=#82b366;" parent="1" vertex="1">
          <mxGeometry x="260" y="420" width="220" height="130" as="geometry" />
        </mxCell>
        <mxCell id="tkWrqGnNcjWu5yAKOuZE-3" value="PPM capture" style="rounded=0;whiteSpace=wrap;html=1;fillColor=#d5e8d4;strokeColor=#82b366;" parent="1" vertex="1">
          <mxGeometry x="260" y="580" width="220" height="130" as="geometry" />
        </mxCell>
        <mxCell id="tkWrqGnNcjWu5yAKOuZE-4" value="S00" style="rounded=0;whiteSpace=wrap;html=1;fillColor=#f8cecc;strokeColor=#b85450;" parent="1" vertex="1">
          <mxGeometry x="260" y="790" width="220" height="290" as="geometry" />
        </mxCell>
        <mxCell id="tkWrqGnNcjWu5yAKOuZE-36" style="edgeStyle=orthogonalEdgeStyle;rounded=0;orthogonalLoop=1;jettySize=auto;html=1;entryX=0;entryY=0.5;entryDx=0;entryDy=0;" parent="1" source="tkWrqGnNcjWu5yAKOuZE-82" target="tkWrqGnNcjWu5yAKOuZE-34" edge="1">
          <mxGeometry relative="1" as="geometry">
            <mxPoint x="280" y="560" as="targetPoint" />
            <Array as="points">
              <mxPoint x="655" y="440" />
            </Array>
          </mxGeometry>
        </mxCell>
        <mxCell id="tkWrqGnNcjWu5yAKOuZE-68" style="edgeStyle=orthogonalEdgeStyle;rounded=0;orthogonalLoop=1;jettySize=auto;html=1;entryX=0;entryY=0.5;entryDx=0;entryDy=0;" parent="1" source="tkWrqGnNcjWu5yAKOuZE-7" target="tkWrqGnNcjWu5yAKOuZE-66" edge="1">
          <mxGeometry relative="1" as="geometry">
            <Array as="points">
              <mxPoint x="530" y="440" />
              <mxPoint x="530" y="780" />
              <mxPoint x="220" y="780" />
              <mxPoint x="220" y="815" />
            </Array>
          </mxGeometry>
        </mxCell>
        <mxCell id="tkWrqGnNcjWu5yAKOuZE-7" value="PPM_Done" style="text;html=1;align=right;verticalAlign=middle;whiteSpace=wrap;rounded=0;fontSize=7;" parent="1" vertex="1">
          <mxGeometry x="420" y="430" width="60" height="20" as="geometry" />
        </mxCell>
        <mxCell id="tkWrqGnNcjWu5yAKOuZE-53" style="edgeStyle=orthogonalEdgeStyle;rounded=0;orthogonalLoop=1;jettySize=auto;html=1;entryX=0;entryY=0.5;entryDx=0;entryDy=0;" parent="1" source="tkWrqGnNcjWu5yAKOuZE-31" target="tkWrqGnNcjWu5yAKOuZE-50" edge="1">
          <mxGeometry relative="1" as="geometry">
            <Array as="points">
              <mxPoint x="630" y="632" />
              <mxPoint x="630" y="505" />
            </Array>
          </mxGeometry>
        </mxCell>
        <mxCell id="tkWrqGnNcjWu5yAKOuZE-89" style="edgeStyle=orthogonalEdgeStyle;rounded=0;orthogonalLoop=1;jettySize=auto;html=1;entryX=-0.03;entryY=0.567;entryDx=0;entryDy=0;entryPerimeter=0;" parent="1" source="tkWrqGnNcjWu5yAKOuZE-31" target="tkWrqGnNcjWu5yAKOuZE-93" edge="1">
          <mxGeometry relative="1" as="geometry">
            <mxPoint x="500" y="730" as="targetPoint" />
            <Array as="points">
              <mxPoint x="500" y="633" />
              <mxPoint x="500" y="750" />
              <mxPoint x="190" y="750" />
              <mxPoint x="190" y="887" />
            </Array>
          </mxGeometry>
        </mxCell>
        <mxCell id="tkWrqGnNcjWu5yAKOuZE-31" value="probe_done" style="text;html=1;align=right;verticalAlign=middle;whiteSpace=wrap;rounded=0;fontSize=7;" parent="1" vertex="1">
          <mxGeometry x="420" y="617.5" width="60" height="30" as="geometry" />
        </mxCell>
        <mxCell id="tkWrqGnNcjWu5yAKOuZE-65" style="edgeStyle=orthogonalEdgeStyle;rounded=0;orthogonalLoop=1;jettySize=auto;html=1;entryX=0;entryY=0.5;entryDx=0;entryDy=0;" parent="1" source="tkWrqGnNcjWu5yAKOuZE-80" target="tkWrqGnNcjWu5yAKOuZE-64" edge="1">
          <mxGeometry relative="1" as="geometry">
            <mxPoint x="509.9999999999998" y="750" as="targetPoint" />
            <Array as="points">
              <mxPoint x="519" y="770" />
              <mxPoint x="210" y="770" />
              <mxPoint x="210" y="825" />
            </Array>
          </mxGeometry>
        </mxCell>
        <mxCell id="tkWrqGnNcjWu5yAKOuZE-22" value="sw_PPM_Output" style="text;html=1;align=right;verticalAlign=middle;whiteSpace=wrap;rounded=0;fontSize=7;" parent="1" vertex="1">
          <mxGeometry x="420" y="440" width="60" height="30" as="geometry" />
        </mxCell>
        <mxCell id="tkWrqGnNcjWu5yAKOuZE-52" style="edgeStyle=orthogonalEdgeStyle;rounded=0;orthogonalLoop=1;jettySize=auto;html=1;entryX=0;entryY=0.5;entryDx=0;entryDy=0;" parent="1" source="tkWrqGnNcjWu5yAKOuZE-30" target="tkWrqGnNcjWu5yAKOuZE-49" edge="1">
          <mxGeometry relative="1" as="geometry">
            <mxPoint x="640" y="500" as="targetPoint" />
            <Array as="points">
              <mxPoint x="610" y="620" />
              <mxPoint x="610" y="495" />
            </Array>
          </mxGeometry>
        </mxCell>
        <mxCell id="tkWrqGnNcjWu5yAKOuZE-30" value="probe_state" style="text;html=1;align=right;verticalAlign=middle;whiteSpace=wrap;rounded=0;fontSize=7;" parent="1" vertex="1">
          <mxGeometry x="420" y="610" width="60" height="20" as="geometry" />
        </mxCell>
        <mxCell id="tkWrqGnNcjWu5yAKOuZE-33" value="generator_input_probe [20..25]" style="text;html=1;align=left;verticalAlign=middle;whiteSpace=wrap;rounded=0;fontSize=7;" parent="1" vertex="1">
          <mxGeometry x="655" y="410" width="120" height="30" as="geometry" />
        </mxCell>
        <mxCell id="tkWrqGnNcjWu5yAKOuZE-34" value="generator_done_probe" style="text;html=1;align=left;verticalAlign=middle;whiteSpace=wrap;rounded=0;fontSize=7;" parent="1" vertex="1">
          <mxGeometry x="655" y="425" width="80" height="30" as="geometry" />
        </mxCell>
        <mxCell id="tkWrqGnNcjWu5yAKOuZE-35" value="PPM_Output" style="text;html=1;align=left;verticalAlign=middle;whiteSpace=wrap;rounded=0;fontSize=7;fontColor=#1900FF;" parent="1" vertex="1">
          <mxGeometry x="670" y="790" width="60" height="30" as="geometry" />
        </mxCell>
        <mxCell id="tkWrqGnNcjWu5yAKOuZE-70" style="edgeStyle=orthogonalEdgeStyle;rounded=0;orthogonalLoop=1;jettySize=auto;html=1;entryX=0;entryY=0.5;entryDx=0;entryDy=0;" parent="1" source="tkWrqGnNcjWu5yAKOuZE-44" target="tkWrqGnNcjWu5yAKOuZE-33" edge="1">
          <mxGeometry relative="1" as="geometry">
            <mxPoint x="602.2222222222222" y="400" as="targetPoint" />
            <Array as="points">
              <mxPoint x="170" y="440" />
              <mxPoint x="170" y="400" />
              <mxPoint x="600" y="400" />
              <mxPoint x="600" y="425" />
            </Array>
          </mxGeometry>
        </mxCell>
        <mxCell id="tkWrqGnNcjWu5yAKOuZE-44" value="&lt;div&gt;slv_reg [20..25]&lt;/div&gt;" style="text;html=1;align=left;verticalAlign=middle;whiteSpace=wrap;rounded=0;fontSize=7;" parent="1" vertex="1">
          <mxGeometry x="260" y="425" width="60" height="30" as="geometry" />
        </mxCell>
        <mxCell id="tkWrqGnNcjWu5yAKOuZE-57" style="edgeStyle=orthogonalEdgeStyle;rounded=0;orthogonalLoop=1;jettySize=auto;html=1;entryX=0;entryY=0.5;entryDx=0;entryDy=0;fontColor=#1900FF;strokeColor=#1900FF;" parent="1" source="tkWrqGnNcjWu5yAKOuZE-45" target="tkWrqGnNcjWu5yAKOuZE-56" edge="1">
          <mxGeometry relative="1" as="geometry" />
        </mxCell>
        <mxCell id="tkWrqGnNcjWu5yAKOuZE-61" style="edgeStyle=orthogonalEdgeStyle;rounded=0;orthogonalLoop=1;jettySize=auto;html=1;exitX=1;exitY=0.5;exitDx=0;exitDy=0;entryX=0;entryY=0.5;entryDx=0;entryDy=0;strokeColor=#1900FF;" parent="1" source="tkWrqGnNcjWu5yAKOuZE-84" target="tkWrqGnNcjWu5yAKOuZE-60" edge="1">
          <mxGeometry relative="1" as="geometry">
            <mxPoint y="760" as="targetPoint" />
            <Array as="points">
              <mxPoint x="151" y="595" />
              <mxPoint x="151" y="805" />
            </Array>
          </mxGeometry>
        </mxCell>
        <mxCell id="tkWrqGnNcjWu5yAKOuZE-45" value="&lt;span style=&quot;color: rgb(25, 0, 255);&quot;&gt;PPM_Input&lt;/span&gt;" style="text;html=1;align=right;verticalAlign=middle;whiteSpace=wrap;rounded=0;fontSize=7;" parent="1" vertex="1">
          <mxGeometry x="-20" y="580" width="60" height="30" as="geometry" />
        </mxCell>
        <mxCell id="tkWrqGnNcjWu5yAKOuZE-46" value="capture_output_probe [0..6]" style="text;html=1;align=left;verticalAlign=middle;whiteSpace=wrap;rounded=0;fontSize=7;fontColor=#000000;" parent="1" vertex="1">
          <mxGeometry x="655" y="470" width="90" height="30" as="geometry" />
        </mxCell>
        <mxCell id="tkWrqGnNcjWu5yAKOuZE-48" style="edgeStyle=orthogonalEdgeStyle;rounded=0;orthogonalLoop=1;jettySize=auto;html=1;entryX=0;entryY=0.5;entryDx=0;entryDy=0;" parent="1" source="tkWrqGnNcjWu5yAKOuZE-47" target="tkWrqGnNcjWu5yAKOuZE-46" edge="1">
          <mxGeometry relative="1" as="geometry">
            <Array as="points">
              <mxPoint x="590" y="603" />
              <mxPoint x="590" y="485" />
            </Array>
          </mxGeometry>
        </mxCell>
        <mxCell id="tkWrqGnNcjWu5yAKOuZE-72" style="edgeStyle=orthogonalEdgeStyle;rounded=0;orthogonalLoop=1;jettySize=auto;html=1;entryX=0;entryY=0.5;entryDx=0;entryDy=0;" parent="1" source="tkWrqGnNcjWu5yAKOuZE-77" target="tkWrqGnNcjWu5yAKOuZE-71" edge="1">
          <mxGeometry relative="1" as="geometry">
            <Array as="points">
              <mxPoint x="510" y="603" />
              <mxPoint x="510" y="760" />
              <mxPoint x="200" y="760" />
              <mxPoint x="200" y="865" />
            </Array>
          </mxGeometry>
        </mxCell>
        <mxCell id="tkWrqGnNcjWu5yAKOuZE-47" value="&lt;div&gt;&lt;font style=&quot;font-size: 7px;&quot;&gt;out_channel [1..6]&lt;/font&gt;&lt;/div&gt;" style="text;html=1;align=right;verticalAlign=middle;whiteSpace=wrap;rounded=0;fontSize=7;" parent="1" vertex="1">
          <mxGeometry x="420" y="587.5" width="60" height="30" as="geometry" />
        </mxCell>
        <mxCell id="tkWrqGnNcjWu5yAKOuZE-49" value="capture_state_probe" style="text;html=1;align=left;verticalAlign=middle;whiteSpace=wrap;rounded=0;fontSize=7;fontColor=#000000;" parent="1" vertex="1">
          <mxGeometry x="655" y="480" width="90" height="30" as="geometry" />
        </mxCell>
        <mxCell id="tkWrqGnNcjWu5yAKOuZE-50" value="capture_done_probe" style="text;html=1;align=left;verticalAlign=middle;whiteSpace=wrap;rounded=0;fontSize=7;fontColor=#000000;" parent="1" vertex="1">
          <mxGeometry x="655" y="490" width="90" height="30" as="geometry" />
        </mxCell>
        <mxCell id="tkWrqGnNcjWu5yAKOuZE-56" value="PPM_Input" style="text;html=1;align=left;verticalAlign=middle;whiteSpace=wrap;rounded=0;fontSize=7;" parent="1" vertex="1">
          <mxGeometry x="260" y="580" width="60" height="30" as="geometry" />
        </mxCell>
        <mxCell id="tkWrqGnNcjWu5yAKOuZE-95" style="edgeStyle=orthogonalEdgeStyle;rounded=0;orthogonalLoop=1;jettySize=auto;html=1;endArrow=none;startFill=0;" parent="1" source="tkWrqGnNcjWu5yAKOuZE-97" edge="1">
          <mxGeometry relative="1" as="geometry">
            <mxPoint x="180" y="440" as="targetPoint" />
            <Array as="points">
              <mxPoint x="170" y="440" />
            </Array>
          </mxGeometry>
        </mxCell>
        <mxCell id="tkWrqGnNcjWu5yAKOuZE-59" value="&lt;div&gt;slv_reg [20..25]&lt;/div&gt;" style="text;html=1;align=right;verticalAlign=middle;whiteSpace=wrap;rounded=0;fontSize=7;" parent="1" vertex="1">
          <mxGeometry x="420" y="810" width="60" height="30" as="geometry" />
        </mxCell>
        <mxCell id="tkWrqGnNcjWu5yAKOuZE-60" value="PPM_Input_controller" style="text;html=1;align=left;verticalAlign=middle;whiteSpace=wrap;rounded=0;fontSize=7;" parent="1" vertex="1">
          <mxGeometry x="260" y="790" width="100" height="30" as="geometry" />
        </mxCell>
        <mxCell id="tkWrqGnNcjWu5yAKOuZE-63" style="edgeStyle=orthogonalEdgeStyle;rounded=0;orthogonalLoop=1;jettySize=auto;html=1;endArrow=classic;startFill=0;strokeColor=#1900FF;entryX=0;entryY=0.5;entryDx=0;entryDy=0;endFill=1;exitX=1;exitY=0.5;exitDx=0;exitDy=0;" parent="1" source="tkWrqGnNcjWu5yAKOuZE-62" target="tkWrqGnNcjWu5yAKOuZE-35" edge="1">
          <mxGeometry relative="1" as="geometry">
            <mxPoint x="544" y="780" as="targetPoint" />
            <mxPoint x="489.9999999999998" y="1095" as="sourcePoint" />
            <Array as="points">
              <mxPoint x="665" y="805" />
            </Array>
          </mxGeometry>
        </mxCell>
        <mxCell id="tkWrqGnNcjWu5yAKOuZE-62" value="PPM_Output" style="text;html=1;align=right;verticalAlign=middle;whiteSpace=wrap;rounded=0;fontSize=7;" parent="1" vertex="1">
          <mxGeometry x="420" y="790" width="60" height="30" as="geometry" />
        </mxCell>
        <mxCell id="tkWrqGnNcjWu5yAKOuZE-64" value="PPM_generator_input" style="text;html=1;align=left;verticalAlign=middle;whiteSpace=wrap;rounded=0;fontSize=7;" parent="1" vertex="1">
          <mxGeometry x="260" y="810" width="100" height="30" as="geometry" />
        </mxCell>
        <mxCell id="tkWrqGnNcjWu5yAKOuZE-66" value="PPM_generator_done" style="text;html=1;align=left;verticalAlign=middle;whiteSpace=wrap;rounded=0;fontSize=7;" parent="1" vertex="1">
          <mxGeometry x="260" y="800" width="100" height="30" as="geometry" />
        </mxCell>
        <mxCell id="tkWrqGnNcjWu5yAKOuZE-71" value="&lt;div&gt;slv_reg [10..15]&lt;/div&gt;" style="text;html=1;align=left;verticalAlign=middle;whiteSpace=wrap;rounded=0;fontSize=7;" parent="1" vertex="1">
          <mxGeometry x="260" y="850" width="60" height="30" as="geometry" />
        </mxCell>
        <mxCell id="tkWrqGnNcjWu5yAKOuZE-77" value="" style="ellipse;whiteSpace=wrap;html=1;aspect=fixed;fillColor=#000000;" parent="1" vertex="1">
          <mxGeometry x="508" y="601" width="3" height="3" as="geometry" />
        </mxCell>
        <mxCell id="tkWrqGnNcjWu5yAKOuZE-81" value="" style="edgeStyle=orthogonalEdgeStyle;rounded=0;orthogonalLoop=1;jettySize=auto;html=1;entryX=0;entryY=0.5;entryDx=0;entryDy=0;endArrow=classic;startFill=0;endFill=1;" parent="1" source="tkWrqGnNcjWu5yAKOuZE-22" target="tkWrqGnNcjWu5yAKOuZE-88" edge="1">
          <mxGeometry relative="1" as="geometry">
            <mxPoint x="260" y="795" as="targetPoint" />
            <mxPoint x="480" y="455" as="sourcePoint" />
            <Array as="points">
              <mxPoint x="655" y="455" />
            </Array>
          </mxGeometry>
        </mxCell>
        <mxCell id="tkWrqGnNcjWu5yAKOuZE-80" value="" style="ellipse;whiteSpace=wrap;html=1;aspect=fixed;fillColor=#000000;" parent="1" vertex="1">
          <mxGeometry x="518" y="453.5" width="3" height="3" as="geometry" />
        </mxCell>
        <mxCell id="tkWrqGnNcjWu5yAKOuZE-83" value="" style="edgeStyle=orthogonalEdgeStyle;rounded=0;orthogonalLoop=1;jettySize=auto;html=1;entryX=0;entryY=0.5;entryDx=0;entryDy=0;endArrow=none;startFill=0;" parent="1" source="tkWrqGnNcjWu5yAKOuZE-7" target="tkWrqGnNcjWu5yAKOuZE-82" edge="1">
          <mxGeometry relative="1" as="geometry">
            <mxPoint x="655" y="440" as="targetPoint" />
            <mxPoint x="480" y="440" as="sourcePoint" />
            <Array as="points" />
          </mxGeometry>
        </mxCell>
        <mxCell id="tkWrqGnNcjWu5yAKOuZE-82" value="" style="ellipse;whiteSpace=wrap;html=1;aspect=fixed;fillColor=#000000;" parent="1" vertex="1">
          <mxGeometry x="529" y="438.5" width="3" height="3" as="geometry" />
        </mxCell>
        <mxCell id="tkWrqGnNcjWu5yAKOuZE-84" value="" style="ellipse;whiteSpace=wrap;html=1;aspect=fixed;fillColor=#1900FF;strokeColor=#1900FF;" parent="1" vertex="1">
          <mxGeometry x="149" y="593.5" width="3" height="3" as="geometry" />
        </mxCell>
        <mxCell id="tkWrqGnNcjWu5yAKOuZE-88" value="generator_output_probe" style="text;html=1;align=left;verticalAlign=middle;whiteSpace=wrap;rounded=0;fontSize=7;" parent="1" vertex="1">
          <mxGeometry x="655" y="440" width="80" height="30" as="geometry" />
        </mxCell>
        <mxCell id="tkWrqGnNcjWu5yAKOuZE-93" value="PPM_capture_done" style="text;html=1;align=left;verticalAlign=middle;whiteSpace=wrap;rounded=0;fontSize=7;" parent="1" vertex="1">
          <mxGeometry x="260" y="870" width="80" height="30" as="geometry" />
        </mxCell>
        <mxCell id="tkWrqGnNcjWu5yAKOuZE-94" value="" style="ellipse;whiteSpace=wrap;html=1;aspect=fixed;fillColor=#000000;" parent="1" vertex="1">
          <mxGeometry x="499" y="631" width="3" height="3" as="geometry" />
        </mxCell>
        <mxCell id="tkWrqGnNcjWu5yAKOuZE-98" value="" style="edgeStyle=orthogonalEdgeStyle;rounded=0;orthogonalLoop=1;jettySize=auto;html=1;endArrow=none;startFill=0;" parent="1" source="tkWrqGnNcjWu5yAKOuZE-59" target="tkWrqGnNcjWu5yAKOuZE-97" edge="1">
          <mxGeometry relative="1" as="geometry">
            <mxPoint x="180" y="440" as="targetPoint" />
            <mxPoint x="480" y="825" as="sourcePoint" />
            <Array as="points">
              <mxPoint x="500" y="825" />
              <mxPoint x="500" y="1100" />
              <mxPoint x="170" y="1100" />
            </Array>
          </mxGeometry>
        </mxCell>
        <mxCell id="tkWrqGnNcjWu5yAKOuZE-97" value="" style="ellipse;whiteSpace=wrap;html=1;aspect=fixed;fillColor=#000000;" parent="1" vertex="1">
          <mxGeometry x="169" y="438.5" width="3" height="3" as="geometry" />
        </mxCell>
        <mxCell id="tkWrqGnNcjWu5yAKOuZE-101" value="AXI top" style="text;html=1;align=center;verticalAlign=middle;whiteSpace=wrap;rounded=0;" parent="1" vertex="1">
          <mxGeometry x="40.5" y="360" width="60" height="30" as="geometry" />
        </mxCell>
        <mxCell id="tkWrqGnNcjWu5yAKOuZE-102" value="&lt;div&gt;slv_reg [20..25]&lt;/div&gt;" style="text;html=1;align=left;verticalAlign=middle;whiteSpace=wrap;rounded=0;fontSize=7;" parent="1" vertex="1">
          <mxGeometry x="580" y="1220" width="60" height="30" as="geometry" />
        </mxCell>
        <mxCell id="tkWrqGnNcjWu5yAKOuZE-115" style="edgeStyle=orthogonalEdgeStyle;rounded=0;orthogonalLoop=1;jettySize=auto;html=1;entryX=0;entryY=0.5;entryDx=0;entryDy=0;" parent="1" source="tkWrqGnNcjWu5yAKOuZE-103" target="tkWrqGnNcjWu5yAKOuZE-111" edge="1">
          <mxGeometry relative="1" as="geometry">
            <Array as="points">
              <mxPoint x="240" y="1215" />
              <mxPoint x="240" y="1258" />
            </Array>
          </mxGeometry>
        </mxCell>
        <mxCell id="tkWrqGnNcjWu5yAKOuZE-103" value="PPM_Input_controller" style="text;html=1;align=right;verticalAlign=middle;whiteSpace=wrap;rounded=0;fontSize=7;" parent="1" vertex="1">
          <mxGeometry x="120" y="1200" width="100" height="30" as="geometry" />
        </mxCell>
        <mxCell id="tkWrqGnNcjWu5yAKOuZE-104" value="PPM_Output" style="text;html=1;align=left;verticalAlign=middle;whiteSpace=wrap;rounded=0;fontSize=7;" parent="1" vertex="1">
          <mxGeometry x="580" y="1200" width="60" height="30" as="geometry" />
        </mxCell>
        <mxCell id="tkWrqGnNcjWu5yAKOuZE-118" style="edgeStyle=orthogonalEdgeStyle;rounded=0;orthogonalLoop=1;jettySize=auto;html=1;entryX=0;entryY=0.5;entryDx=0;entryDy=0;" parent="1" source="tkWrqGnNcjWu5yAKOuZE-105" target="tkWrqGnNcjWu5yAKOuZE-112" edge="1">
          <mxGeometry relative="1" as="geometry">
            <Array as="points">
              <mxPoint x="230" y="1235" />
              <mxPoint x="230" y="1273" />
            </Array>
          </mxGeometry>
        </mxCell>
        <mxCell id="tkWrqGnNcjWu5yAKOuZE-105" value="PPM_generator_input" style="text;html=1;align=right;verticalAlign=middle;whiteSpace=wrap;rounded=0;fontSize=7;" parent="1" vertex="1">
          <mxGeometry x="120" y="1220" width="100" height="30" as="geometry" />
        </mxCell>
        <mxCell id="tkWrqGnNcjWu5yAKOuZE-106" value="PPM_generator_done" style="text;html=1;align=right;verticalAlign=middle;whiteSpace=wrap;rounded=0;fontSize=7;" parent="1" vertex="1">
          <mxGeometry x="120" y="1210" width="100" height="30" as="geometry" />
        </mxCell>
        <mxCell id="tkWrqGnNcjWu5yAKOuZE-127" style="edgeStyle=orthogonalEdgeStyle;rounded=0;orthogonalLoop=1;jettySize=auto;html=1;entryX=0;entryY=0.25;entryDx=0;entryDy=0;" parent="1" source="tkWrqGnNcjWu5yAKOuZE-107" target="tkWrqGnNcjWu5yAKOuZE-126" edge="1">
          <mxGeometry relative="1" as="geometry" />
        </mxCell>
        <mxCell id="tkWrqGnNcjWu5yAKOuZE-107" value="&lt;div&gt;slv_reg [10..15]&lt;/div&gt;" style="text;html=1;align=right;verticalAlign=middle;whiteSpace=wrap;rounded=0;fontSize=7;" parent="1" vertex="1">
          <mxGeometry x="140.5" y="1330" width="60" height="30" as="geometry" />
        </mxCell>
        <mxCell id="tkWrqGnNcjWu5yAKOuZE-125" style="edgeStyle=orthogonalEdgeStyle;rounded=0;orthogonalLoop=1;jettySize=auto;html=1;entryX=0;entryY=0.5;entryDx=0;entryDy=0;" parent="1" source="tkWrqGnNcjWu5yAKOuZE-108" target="tkWrqGnNcjWu5yAKOuZE-124" edge="1">
          <mxGeometry relative="1" as="geometry" />
        </mxCell>
        <mxCell id="tkWrqGnNcjWu5yAKOuZE-108" value="PPM_capture_done" style="text;html=1;align=right;verticalAlign=middle;whiteSpace=wrap;rounded=0;fontSize=7;" parent="1" vertex="1">
          <mxGeometry x="120" y="1392.5" width="80" height="30" as="geometry" />
        </mxCell>
        <mxCell id="tkWrqGnNcjWu5yAKOuZE-109" value="" style="rounded=0;whiteSpace=wrap;html=1;fillColor=#fff2cc;strokeColor=#d6b656;" parent="1" vertex="1">
          <mxGeometry x="330" y="1235" width="80" height="55" as="geometry" />
        </mxCell>
        <mxCell id="tkWrqGnNcjWu5yAKOuZE-110" value="S" style="text;html=1;align=center;verticalAlign=middle;whiteSpace=wrap;rounded=0;fontSize=7;" parent="1" vertex="1">
          <mxGeometry x="330" y="1235" width="30" height="15" as="geometry" />
        </mxCell>
        <mxCell id="tkWrqGnNcjWu5yAKOuZE-111" value="0" style="text;html=1;align=center;verticalAlign=middle;whiteSpace=wrap;rounded=0;fontSize=7;" parent="1" vertex="1">
          <mxGeometry x="330" y="1250" width="30" height="15" as="geometry" />
        </mxCell>
        <mxCell id="tkWrqGnNcjWu5yAKOuZE-112" value="1" style="text;html=1;align=center;verticalAlign=middle;whiteSpace=wrap;rounded=0;fontSize=7;" parent="1" vertex="1">
          <mxGeometry x="330" y="1265" width="30" height="15" as="geometry" />
        </mxCell>
        <mxCell id="tkWrqGnNcjWu5yAKOuZE-114" style="edgeStyle=orthogonalEdgeStyle;rounded=0;orthogonalLoop=1;jettySize=auto;html=1;entryX=0;entryY=0.5;entryDx=0;entryDy=0;" parent="1" source="tkWrqGnNcjWu5yAKOuZE-113" target="tkWrqGnNcjWu5yAKOuZE-104" edge="1">
          <mxGeometry relative="1" as="geometry" />
        </mxCell>
        <mxCell id="tkWrqGnNcjWu5yAKOuZE-113" value="mux_out" style="text;html=1;align=center;verticalAlign=middle;whiteSpace=wrap;rounded=0;fontSize=7;" parent="1" vertex="1">
          <mxGeometry x="370" y="1235" width="40" height="15" as="geometry" />
        </mxCell>
        <mxCell id="tkWrqGnNcjWu5yAKOuZE-122" style="edgeStyle=orthogonalEdgeStyle;rounded=0;orthogonalLoop=1;jettySize=auto;html=1;entryX=0;entryY=0.5;entryDx=0;entryDy=0;" parent="1" source="tkWrqGnNcjWu5yAKOuZE-121" target="tkWrqGnNcjWu5yAKOuZE-110" edge="1">
          <mxGeometry relative="1" as="geometry" />
        </mxCell>
        <mxCell id="tkWrqGnNcjWu5yAKOuZE-121" value="slv_reg0(0)" style="text;html=1;align=right;verticalAlign=middle;whiteSpace=wrap;rounded=0;fontSize=7;" parent="1" vertex="1">
          <mxGeometry x="250" y="1227.5" width="50" height="30" as="geometry" />
        </mxCell>
        <mxCell id="tkWrqGnNcjWu5yAKOuZE-124" value="&lt;font style=&quot;font-size: 7px;&quot;&gt;counter++&lt;/font&gt;" style="rounded=0;whiteSpace=wrap;html=1;fillColor=#fff2cc;strokeColor=#d6b656;" parent="1" vertex="1">
          <mxGeometry x="330" y="1380" width="80" height="55" as="geometry" />
        </mxCell>
        <mxCell id="tkWrqGnNcjWu5yAKOuZE-128" value="&lt;font style=&quot;font-size: 7px;&quot;&gt;Software&lt;/font&gt;" style="text;html=1;align=center;verticalAlign=middle;whiteSpace=wrap;rounded=0;" parent="1" vertex="1">
          <mxGeometry x="270" y="1290" width="60" height="30" as="geometry" />
        </mxCell>
        <mxCell id="tkWrqGnNcjWu5yAKOuZE-130" value="S00" style="text;html=1;align=center;verticalAlign=middle;whiteSpace=wrap;rounded=0;" parent="1" vertex="1">
          <mxGeometry x="112" y="1180" width="60" height="20" as="geometry" />
        </mxCell>
      </root>
    </mxGraphModel>
  </diagram>
</mxfile>
